<?xml version="1.0" encoding="utf-8"?>
<!-- Uploaded to: SVG Repo, www.svgrepo.com, Generator: SVG Repo Mixer Tools -->
<svg fill="#000000" width="800px" height="800px" viewBox="0 -8 48 48" version="1.1" xmlns="http://www.w3.org/2000/svg">
<title>jpa</title>
<path d="M5.063 13.531c-0.094 0-0.125-0.031-0.188-0.063-0.031-0.063-0.031-0.125-0.031-0.219s0-0.188 0.031-0.219c0.063-0.063 0.094-0.094 0.188-0.094 0.063 0 0.125 0.031 0.156 0.094 0.031 0.031 0.063 0.125 0.063 0.219s-0.031 0.156-0.063 0.219c-0.031 0.031-0.094 0.063-0.156 0.063zM8.406 9.969c-0.031 0-0.094 0-0.125-0.031-0.063-0.031-0.094-0.125-0.094-0.219 0-0.063 0.031-0.125 0.031-0.188 0.031-0.063 0.094-0.125 0.188-0.125s0.125 0.031 0.156 0.094 0.063 0.125 0.063 0.188-0.031 0.156-0.063 0.219-0.094 0.063-0.156 0.063zM7.313 13.563c-0.031 0-0.063 0-0.094-0.031 0 0-0.031-0.031-0.031-0.094 0-0.031 0.031-0.063 0.063-0.094s0.063-0.031 0.125-0.031l0.063-0.031h0.063l0.031-0.031v0.094c0 0.094-0.031 0.156-0.063 0.188s-0.094 0.031-0.156 0.031zM2.281 13.219h-0.344l0.156-0.5zM7.406 9.75h0.031c0.031 0 0.063-0.031 0.094-0.031h0.031v0.063c0 0.094-0.031 0.156-0.063 0.188-0.063 0.031-0.094 0.031-0.156 0.031h-0.094c0-0.031-0.031-0.063-0.031-0.094 0-0.063 0.031-0.094 0.063-0.125 0.031 0 0.063-0.031 0.125-0.031zM8.5 11.219c-0.031 0.031-0.063 0.031-0.125 0.031h-0.25v-0.375h0.25c0.063 0 0.094 0.031 0.125 0.063 0.063 0 0.063 0.063 0.063 0.125s0 0.125-0.063 0.156zM9.344 11.188c0.063 0 0.094 0 0.156 0.031 0.031 0.031 0.063 0.094 0.063 0.156h-0.438c0-0.063 0.031-0.125 0.063-0.156s0.094-0.031 0.156-0.031zM9.344 12.938c0.063 0 0.125 0.031 0.156 0.094 0.031 0.031 0.063 0.125 0.063 0.219s-0.031 0.156-0.063 0.219c-0.031 0.031-0.094 0.063-0.156 0.063-0.094 0-0.156-0.031-0.188-0.063-0.031-0.063-0.063-0.125-0.063-0.219s0.031-0.188 0.063-0.219c0.031-0.063 0.094-0.094 0.188-0.094zM11.688 8.656h27.125c5.281 0 9.531 3.75 9.531 8.344v10.156h-35.063c-5.25 0-9.531-3.719-9.531-8.313v-3.063c-2.188-0.813-3.75-2.75-3.75-5.031 0-3.031 2.719-5.469 6.063-5.469 2.563 0 4.719 1.406 5.625 3.375zM10.156 9.219h-0.219v0.938h0.25v-0.656c0.031-0.063 0.094-0.094 0.188-0.094 0.063 0 0.094 0.031 0.125 0.063s0.031 0.063 0.031 0.125v0.563h0.25v-0.625c0-0.125-0.031-0.219-0.094-0.25-0.063-0.063-0.156-0.094-0.25-0.094-0.063 0-0.125 0.031-0.188 0.063l-0.094 0.094v-0.125zM10.5 13.031c0.031 0.031 0.031 0.063 0.031 0.094v0.594h0.25v-0.656c0-0.094-0.031-0.188-0.094-0.25-0.063-0.031-0.156-0.063-0.25-0.063-0.063 0-0.125 0-0.188 0.063-0.031 0-0.063 0.063-0.094 0.094v-0.125h-0.219v0.938h0.25v-0.656c0.031-0.063 0.094-0.125 0.188-0.125 0.063 0 0.094 0.031 0.125 0.094zM10.531 10.656v1.281h0.25v-1.281h-0.25zM10.125 11h-0.219v0.938h0.25v-0.438c0-0.094 0-0.156 0.031-0.188 0.031-0.063 0.094-0.094 0.188-0.094h0.063v-0.25h-0.031c-0.063 0-0.125 0.031-0.188 0.063 0 0.031-0.063 0.063-0.094 0.125v-0.156zM9.469 9.406c0.031 0.031 0.063 0.063 0.063 0.094s-0.031 0.063-0.063 0.063-0.063 0.031-0.094 0.031h-0.094c-0.094 0.031-0.156 0.031-0.219 0.063-0.094 0.063-0.125 0.125-0.125 0.25 0 0.094 0.031 0.156 0.094 0.219 0.031 0.031 0.125 0.063 0.188 0.063 0.094 0 0.156 0 0.188-0.031 0.063-0.031 0.094-0.063 0.125-0.094v0.063c0 0 0 0.031 0.031 0.031h0.25v-0.031s-0.031 0-0.031-0.031v-0.594c0-0.125-0.063-0.188-0.125-0.25-0.094-0.031-0.188-0.063-0.281-0.063-0.156 0-0.281 0.063-0.344 0.125-0.031 0.063-0.063 0.125-0.063 0.219h0.25c0-0.031 0-0.063 0.031-0.094 0-0.031 0.063-0.031 0.125-0.031h0.094zM9.219 11.75c-0.063-0.063-0.094-0.125-0.094-0.219h0.688v-0.188c-0.031-0.063-0.031-0.125-0.094-0.188-0.031-0.063-0.094-0.125-0.156-0.156s-0.125-0.031-0.219-0.031c-0.125 0-0.25 0.031-0.344 0.125s-0.125 0.219-0.125 0.375c0 0.188 0.063 0.313 0.156 0.375 0.094 0.094 0.188 0.125 0.313 0.125 0.156 0 0.281-0.031 0.375-0.125l0.094-0.188h-0.25c-0.031 0.031-0.031 0.063-0.063 0.063-0.031 0.031-0.094 0.063-0.125 0.063-0.063 0-0.125-0.031-0.156-0.031zM9.813 13.25c0-0.156-0.031-0.25-0.125-0.375-0.063-0.094-0.188-0.125-0.344-0.125-0.188 0-0.313 0.031-0.375 0.125-0.094 0.125-0.125 0.219-0.125 0.375 0 0.125 0.031 0.25 0.125 0.344 0.063 0.094 0.188 0.156 0.375 0.156 0.156 0 0.281-0.063 0.344-0.156 0.094-0.094 0.125-0.219 0.125-0.344zM8.188 9.219h-0.219v1.313h0.25v-0.5c0 0.063 0.031 0.094 0.063 0.094 0.063 0.031 0.125 0.063 0.188 0.063 0.125 0 0.219-0.031 0.313-0.125 0.063-0.094 0.094-0.219 0.094-0.375s-0.031-0.281-0.125-0.375c-0.063-0.063-0.156-0.125-0.281-0.125-0.063 0-0.125 0.031-0.188 0.063l-0.094 0.094v-0.125zM8.406 10.656h-0.531v1.281h0.25v-0.469h0.281c0.125 0 0.25-0.031 0.313-0.094s0.125-0.156 0.125-0.313c0-0.125-0.063-0.25-0.125-0.313s-0.188-0.094-0.313-0.094zM8.469 12.438v0.219h0.25v-0.219h-0.25zM8.719 13.719v-0.938h-0.25v0.938h0.25zM8.25 13.531c-0.031-0.031-0.031-0.031-0.031-0.094v-0.469h0.156v-0.188h-0.156v-0.281h-0.25v0.281h-0.125v0.188h0.125v0.563c0 0.063 0.031 0.094 0.063 0.125 0.031 0.063 0.094 0.063 0.219 0.063h0.125v-0.188h-0.125zM7.531 9.406c0.031 0.031 0.031 0.063 0.031 0.094s0 0.063-0.063 0.063c0 0-0.031 0.031-0.094 0.031h-0.063c-0.125 0.031-0.188 0.031-0.219 0.063-0.094 0.063-0.156 0.125-0.156 0.25 0 0.094 0.031 0.156 0.094 0.219 0.063 0.031 0.125 0.063 0.219 0.063 0.063 0 0.125 0 0.188-0.031l0.094-0.094c0 0 0 0.031 0.031 0.063v0.031h0.281v-0.031c-0.031 0-0.031 0-0.031-0.031-0.031 0-0.031-0.031-0.031-0.063v-0.531c0-0.125-0.031-0.188-0.125-0.25-0.063-0.031-0.156-0.063-0.281-0.063-0.156 0-0.25 0.063-0.344 0.125-0.031 0.063-0.063 0.125-0.063 0.219h0.25c0-0.031 0-0.063 0.031-0.094s0.063-0.031 0.125-0.031h0.125zM7.094 13.219c-0.094 0.031-0.156 0.125-0.156 0.25 0 0.094 0.031 0.156 0.094 0.188 0.063 0.063 0.125 0.094 0.219 0.094 0.063 0 0.125-0.031 0.188-0.063 0.031-0.031 0.063-0.063 0.125-0.094v0.125h0.281v-0.031l-0.031-0.031c-0.031-0.031-0.031-0.031-0.031-0.063v-0.563c0-0.094-0.031-0.188-0.125-0.219-0.063-0.031-0.156-0.063-0.281-0.063-0.156 0-0.25 0.031-0.313 0.125-0.063 0.063-0.063 0.125-0.094 0.188h0.25c0-0.031 0.031-0.063 0.031-0.063 0.031-0.031 0.063-0.063 0.125-0.063s0.094 0 0.125 0.031c0.031 0 0.031 0.031 0.031 0.094 0 0.031 0 0.031-0.031 0.063h-0.125l-0.063 0.031c-0.094 0-0.188 0.031-0.219 0.063zM6.313 9.688h-0.281v0.031c0 0.125 0.031 0.25 0.094 0.344s0.156 0.125 0.344 0.125c0.156 0 0.25-0.063 0.313-0.156 0.063-0.063 0.063-0.156 0.063-0.25v-0.906h-0.25v0.906c0 0.063-0.031 0.094-0.031 0.125-0.031 0.063-0.063 0.063-0.125 0.063s-0.094 0-0.094-0.063c-0.031-0.031-0.031-0.094-0.031-0.188v-0.031zM6.594 12.438v0.219h0.25v-0.219h-0.25zM6.844 13.719v-0.938h-0.25v0.938h0.25zM5.719 12.875c-0.063 0.094-0.125 0.219-0.125 0.375s0.063 0.281 0.125 0.375c0.063 0.063 0.188 0.125 0.344 0.125 0.125 0 0.25-0.063 0.344-0.156 0.031-0.063 0.063-0.156 0.063-0.219h-0.25c0 0.031-0.031 0.094-0.031 0.125-0.031 0.031-0.063 0.031-0.125 0.031-0.094 0-0.156-0.031-0.188-0.125v-0.313c0.031-0.094 0.094-0.125 0.188-0.125 0.063 0 0.094 0 0.125 0.031s0.031 0.063 0.031 0.094h0.25c0-0.125-0.063-0.219-0.125-0.281-0.063-0.031-0.188-0.063-0.281-0.063-0.156 0-0.25 0.031-0.344 0.125zM4.688 12.875c-0.063 0.125-0.125 0.219-0.125 0.375 0 0.125 0.063 0.25 0.125 0.344 0.094 0.094 0.219 0.156 0.375 0.156s0.281-0.063 0.344-0.156c0.094-0.094 0.125-0.219 0.125-0.344 0-0.156-0.031-0.25-0.125-0.375-0.063-0.094-0.188-0.125-0.344-0.125s-0.281 0.031-0.375 0.125zM2.344 13.438l0.063 0.281h0.313l-0.469-1.281h-0.281l-0.469 1.281h0.281l0.094-0.281h0.469zM3.5 13.656c0.063-0.063 0.094-0.125 0.094-0.219s-0.031-0.125-0.063-0.188c-0.063-0.031-0.125-0.094-0.219-0.094-0.156-0.031-0.25-0.063-0.281-0.094-0.031 0-0.031-0.031-0.031-0.063 0 0 0-0.031 0.031-0.031 0.031-0.031 0.063-0.031 0.125-0.031s0.094 0 0.125 0.031 0.031 0.063 0.031 0.094h0.25c0-0.125-0.063-0.188-0.125-0.25s-0.156-0.063-0.281-0.063-0.219 0.031-0.313 0.094c-0.063 0.063-0.094 0.125-0.094 0.219 0 0.063 0.031 0.125 0.063 0.156 0.063 0.063 0.125 0.094 0.25 0.125s0.219 0.063 0.25 0.063 0.031 0.031 0.031 0.063-0.031 0.063-0.031 0.063c-0.031 0.031-0.094 0.031-0.125 0.031-0.094 0-0.156-0.031-0.188-0.063 0 0-0.031-0.031-0.031-0.094h-0.25c0 0.094 0.031 0.188 0.125 0.25 0.063 0.063 0.156 0.094 0.313 0.094s0.25-0.031 0.344-0.094zM4.406 13.656c0.063-0.063 0.125-0.125 0.125-0.219s-0.031-0.125-0.094-0.188c-0.031-0.031-0.125-0.094-0.219-0.094-0.156-0.031-0.219-0.063-0.25-0.094-0.031 0-0.031-0.031-0.031-0.063 0 0 0-0.031 0.031-0.031 0.031-0.031 0.063-0.031 0.094-0.031 0.094 0 0.125 0 0.156 0.031 0 0.031 0.031 0.063 0.031 0.094h0.25c-0.031-0.125-0.063-0.188-0.125-0.25-0.094-0.063-0.188-0.063-0.313-0.063s-0.219 0.031-0.281 0.094-0.094 0.125-0.094 0.219c0 0.063 0.031 0.125 0.063 0.156 0.031 0.063 0.125 0.094 0.219 0.125 0.156 0.031 0.25 0.063 0.25 0.063 0.031 0 0.063 0.031 0.063 0.063s-0.031 0.063-0.063 0.063c-0.031 0.031-0.063 0.031-0.125 0.031s-0.125-0.031-0.156-0.063c-0.031 0-0.031-0.031-0.031-0.094h-0.25c0 0.094 0.031 0.188 0.094 0.25 0.094 0.063 0.188 0.094 0.344 0.094s0.25-0.031 0.313-0.094zM13.281 26.375h34.281v-9.375c0-4.188-3.906-7.563-8.75-7.563h-26.844c0.125 0.406 0.188 0.844 0.188 1.313 0 3-2.719 5.469-6.094 5.469-0.531 0-1.031-0.063-1.531-0.188v2.813c0 4.156 3.938 7.531 8.75 7.531zM9.344 9.75h0.063c0.031 0 0.063-0.031 0.063-0.031h0.063v0.063c0 0.094-0.031 0.156-0.094 0.188-0.031 0.031-0.094 0.031-0.125 0.031h-0.094c-0.031-0.031-0.031-0.063-0.031-0.094 0-0.063 0-0.094 0.063-0.125 0 0 0.063-0.031 0.094-0.031zM36.031 10.75h2.156c4.344 0 7.844 2.906 7.844 6.469v7.938h-2v-7.625c0-2.688-2.844-4.875-6.313-4.875h-1.688v5.188h6v2h-6v5.313h-2v-14.406h2zM14.344 23.25h1.719v-12.5h2v14.406h-4.188c-4.313 0-7.844-2.906-7.844-6.5v-0.688h2.094v0.531c0 2.625 2.781 4.75 6.219 4.75zM22 10.75h4.5c1.781 0 3.344 0.781 4.406 2 0.781 0.938 1.281 2.125 1.281 3.438s-0.5 2.5-1.281 3.438c-1.063 1.219-2.625 2-4.406 2h-2.5v-2h2.75c1.813-0.188 3.219-1.656 3.219-3.438s-1.406-3.25-3.219-3.438h-4.75v12.406h-2v-14.406h2z"></path>
</svg>